<?xml version="1.0" encoding="UTF-8"?>
<svg width="34px" height="40px" viewBox="0 0 34 40" version="1.1" xmlns="http://www.w3.org/2000/svg" xmlns:xlink="http://www.w3.org/1999/xlink">
    <!-- Generator: Sketch 58 (84663) - https://sketch.com -->
    <title>Businessman Icon</title>
    <desc>Created with Sketch.</desc>
    <g id="Page-1" stroke="none" stroke-width="1" fill="none" fill-rule="evenodd">
        <g id="Mobile" transform="translate(-28.000000, -1890.000000)" fill="#000000" fill-rule="nonzero">
            <g id="Copy-Area" transform="translate(21.000000, 749.000000)">
                <g id="Features" transform="translate(7.000000, 526.000000)">
                    <g id="Business" transform="translate(0.000000, 615.000000)">
                        <g id="Businessman-Icon" transform="translate(-0.000000, 0.000000)">
                            <ellipse id="Oval" cx="20.7692308" cy="3.46153846" rx="3.07692308" ry="3.46153846"></ellipse>
                            <path d="M32.2465183,17.1366065 C31.3040559,16.9770384 27.3702996,16.179198 27.1654165,16.099414 C27.0424866,16.059522 27.0424866,16.059522 27.00151,15.9797379 C26.9195567,15.8600619 23.3545901,9.75658316 23.0267771,9.397555 C22.4531043,8.59971464 21.6745484,7.96144236 20.5272028,7.80187429 C19.2979039,7.44284613 18.0276285,8.08111841 18.0276285,8.08111841 C18.0276285,8.08111841 11.8401577,11.4320479 11.471368,11.6714 C11.0616017,11.8708601 10.7337887,12.5889164 10.7337887,12.5889164 L7.08686884,17.8945548 C6.75905582,18.293475 6.63612594,18.8120712 6.80003245,19.3705595 C6.96393896,19.9689397 7.49663512,20.4077519 8.15226117,20.527428 C9.05374698,20.686996 9.83230291,20.0487238 10.2010926,19.2907754 L13.6841059,14.3441652 L15.4051243,13.5862169 C15.2821944,13.945245 13.8889891,21.3252683 13.8889891,21.3252683 L12.4957837,30.0616202 L6.75905582,36.364559 C6.30831291,36.8033712 6.06245315,37.4416435 6.18538303,38.1198078 C6.30831291,38.9575402 6.96393896,39.5559205 7.82444814,39.6755965 C8.6439807,39.7952726 9.38156,39.4362444 9.87327954,38.8777562 C10.8567186,37.7208876 16.1427036,32.0163291 16.5934465,31.4578408 C17.1261427,30.8195686 17.2490725,30.5004324 17.3310258,30.1015122 C17.4129791,29.7025921 18.191535,24.3570617 18.191535,24.3570617 L23.47752,29.3036719 L24.460959,38.2394839 L24.460959,38.2394839 C24.5838889,39.2367843 25.567328,40.0745167 26.6327203,39.9947327 C27.657136,39.9149486 28.4356919,39.1968923 28.5176452,38.1995919 C28.5176452,38.1995919 28.5176452,37.9602397 28.5176452,37.9602397 C28.4766686,36.6039111 27.5342061,29.8222681 27.5342061,28.3063714 C27.5751828,26.5910147 26.9195567,26.2319865 26.7966268,26.0724184 C26.6327203,25.8729584 21.6745484,20.9662402 21.6745484,20.9662402 L22.6170108,15.2616816 C22.6170108,15.2616816 24.2970525,17.8945548 24.460959,18.1737989 C24.6248656,18.453043 25.0756085,18.9716393 25.5263514,19.0913153 C25.9770943,19.1710994 31.9187053,20.3678599 31.9187053,20.3678599 C31.9187053,20.3678599 32.0826118,20.3678599 32.1645651,20.3678599 C33.1070275,20.3678599 33.8855834,19.6498036 33.8446068,18.7322872 C33.8446068,17.8945548 33.1480041,17.1764985 32.2465183,17.1366065 Z" id="Path"></path>
                            <path d="M6.14848665,28.9410046 L0.76118406,25.3137696 C-0.00268720289,24.7898357 -0.243909707,23.7016652 0.278739052,22.9359156 L2.24872283,19.993825 C2.77137159,19.2280754 3.85687286,18.9862598 4.62074412,19.5101937 L10.0080467,23.1374286 C10.771918,23.6613626 11.0131405,24.7495331 10.4904917,25.5152827 L8.52050794,28.4573732 C7.99785918,29.2634255 6.91235791,29.4649385 6.14848665,28.9410046 Z" id="Path"></path>
                        </g>
                    </g>
                </g>
            </g>
        </g>
    </g>
</svg>