<?xml version="1.0" encoding="UTF-8"?>
<svg width="39px" height="40px" viewBox="0 0 39 40" version="1.1" xmlns="http://www.w3.org/2000/svg" xmlns:xlink="http://www.w3.org/1999/xlink">
    <!-- Generator: Sketch 58 (84663) - https://sketch.com -->
    <title>Genius Icon</title>
    <desc>Created with Sketch.</desc>
    <g id="Page-1" stroke="none" stroke-width="1" fill="none" fill-rule="evenodd">
        <g id="Mobile" transform="translate(-28.000000, -1275.000000)" fill="#000000" fill-rule="nonzero">
            <g id="Copy-Area" transform="translate(21.000000, 749.000000)">
                <g id="Features" transform="translate(7.000000, 526.000000)">
                    <g id="Genius">
                        <g id="Genius-Icon">
                            <g id="Group" transform="translate(-0.000000, 0.000000)">
                                <path d="M16.9840909,1.96 C13.4909091,3.52 10.8409091,6.2 9.07424242,9.92 C8.79318182,10.48 8.7530303,11.24 8.67272727,12 C8.59242424,12.76 8.51212121,13.56 8.23106061,14.04 C7.78939394,14.8 6.02272727,15.68 4.61742424,16.4 C2.85075758,17.28 1.72651515,17.88 1.44545455,18.56 C0.803030303,20.2 2.1280303,21.04 2.85075758,21.52 C3.01136364,21.64 3.25227273,21.76 3.33257576,21.88 C3.21212121,22.16 2.97121212,22.4 2.65,22.68 C2.1280303,23.12 1.44545455,23.68 1.60606061,24.76 C1.64621212,24.88 1.64621212,25 1.72651515,25.12 C1.72651515,25.12 1.72651515,25.12 1.72651515,25.12 C1.76666667,25.2 1.72651515,25.32 1.64621212,25.4 C0.883333333,26 0.843181818,27.12 1.56590909,28.44 C1.60606061,28.48 1.60606061,28.56 1.60606061,28.6 C1.52575758,28.96 1.28484848,29.28 1.08409091,29.6 C0.642424242,30.28 0.0803030303,31.08 0.401515152,32.48 C0.803030303,34.16 3.65378788,35.32 9.11439394,35.96 C9.19469697,35.96 9.275,36.04 9.275,36.08 C9.31515152,36.12 9.31515152,36.2 9.31515152,36.28 C9.11439394,37.24 8.67272727,38.72 8.55227273,39.04 C8.4719697,39.28 8.59242424,39.56 8.87348485,39.64 C8.91363636,39.64 8.99393939,39.68 9.03409091,39.68 C9.23484848,39.68 9.43560606,39.56 9.47575758,39.36 C9.59621212,39.04 10.0378788,37.48 10.2386364,36.48 C10.3189394,36.16 10.2386364,35.8 10.0378788,35.52 C9.83712121,35.24 9.51590909,35.08 9.19469697,35.04 C2.48939394,34.24 1.44545455,32.84 1.325,32.28 C1.08409091,31.28 1.44545455,30.76 1.8469697,30.12 C2.1280303,29.72 2.36893939,29.32 2.52954545,28.8 C2.60984848,28.52 2.56969697,28.24 2.40909091,27.96 C2.24848485,27.64 1.72651515,26.52 2.24848485,26.12 C2.69015152,25.76 2.85075758,25.12 2.56969697,24.64 C2.56969697,24.64 2.56969697,24.6 2.56969697,24.56 C2.48939394,24.04 2.73030303,23.8 3.25227273,23.36 C3.65378788,23 4.13560606,22.6 4.29621212,21.96 C4.41666667,21.36 3.89469697,21.04 3.37272727,20.68 C2.48939394,20.12 2.00757576,19.72 2.32878788,18.92 C2.48939394,18.56 3.93484848,17.8 5.01893939,17.24 C6.70530303,16.4 8.4719697,15.48 9.03409091,14.52 C9.39545455,13.88 9.51590909,12.96 9.59621212,12.12 C9.67651515,11.48 9.71666667,10.8 9.91742424,10.36 C11.5636364,6.88 14.0931818,4.32 17.3454545,2.84 C17.5863636,2.72 17.7068182,2.44 17.5863636,2.2 C17.5462121,1.96 17.2651515,1.84 16.9840909,1.96 Z" id="Path"></path>
                                <path d="M36.8189394,21.24 C36.5780303,21.2 36.2969697,21.36 36.2568182,21.6 C35.9757576,23 35.2128788,25.08 33.4462121,26.96 C32.3621212,28.08 31.0772727,28.96 29.6318182,29.56 C29.2704545,29.72 29.0295455,30 28.9090909,30.36 L26.580303,39.04 C26.5,39.32 26.6204545,39.6 26.9015152,39.68 C26.9416667,39.68 26.9818182,39.68 27.0219697,39.68 C27.2227273,39.68 27.4234848,39.52 27.5037879,39.32 L29.8325758,30.64 C29.8727273,30.56 29.9128788,30.52 29.9931818,30.48 C31.5992424,29.84 32.9643939,28.88 34.1689394,27.64 C36.0962121,25.6 36.8992424,23.36 37.2204545,21.8 C37.2606061,21.56 37.0598485,21.32 36.8189394,21.24 Z" id="Path"></path>
                                <path d="M35.3333333,10.84 C36.9795455,9.16 37.9833333,7.52 38.1840909,6.24 C38.3045455,5.48 38.1037879,4.88 37.6621212,4.36 C37.1401515,3.76 36.2568182,3.48 35.0924242,3.48 C34.1689394,3.48 33.0848485,3.68 31.880303,4.04 C30.9568182,1.68 29.5515152,0.32 28.0257576,0.32 C26.5,0.32 25.094697,1.68 24.1712121,4.04 C22.9666667,3.68 21.8825758,3.48 20.9590909,3.48 C19.794697,3.48 18.9113636,3.8 18.3893939,4.36 C17.9477273,4.84 17.7871212,5.48 17.8674242,6.24 C18.0280303,7.52 19.0318182,9.16 20.7181818,10.84 C19.0719697,12.52 18.0280303,14.16 17.8674242,15.44 C17.7469697,16.2 17.9477273,16.8 18.3893939,17.28 C18.9113636,17.88 19.794697,18.16 20.9590909,18.16 C21.8825758,18.16 22.9666667,17.96 24.1712121,17.6 C25.094697,19.96 26.5,21.32 28.0257576,21.32 C29.5515152,21.32 30.9568182,19.96 31.880303,17.6 C33.0848485,17.96 34.1689394,18.16 35.0924242,18.16 C36.2568182,18.16 37.1401515,17.84 37.6621212,17.28 C38.1037879,16.8 38.2643939,16.16 38.1840909,15.44 C38.0234848,14.16 37.019697,12.52 35.3333333,10.84 Z M19.5537879,16.4 C19.3530303,16.16 19.2727273,15.84 19.3128788,15.4 C19.4734848,14.36 20.3166667,13 21.7621212,11.56 C22.2439394,12 22.7659091,12.44 23.3280303,12.88 C23.4484848,14.16 23.6893939,15.36 24.0106061,16.44 C21.8022727,17.08 20.1159091,17.04 19.5537879,16.4 Z M23.2075758,11.44 C22.9666667,11.24 22.7257576,11.04 22.525,10.84 C22.7659091,10.64 22.9666667,10.44 23.2075758,10.24 C23.2075758,10.44 23.2075758,10.64 23.2075758,10.84 C23.1674242,11.04 23.2075758,11.24 23.2075758,11.44 Z M23.2878788,8.8 C22.7257576,9.24 22.2037879,9.68 21.7219697,10.12 C20.2765152,8.68 19.4333333,7.28 19.2727273,6.28 C19.2325758,5.84 19.3128788,5.52 19.5136364,5.28 C19.794697,4.96 20.3969697,4.76 21.2,4.76 C21.9628788,4.76 22.8863636,4.92 23.930303,5.24 C23.6090909,6.32 23.4083333,7.52 23.2878788,8.8 Z M31.5992424,7.92 C31.3984848,7.76 31.1977273,7.64 30.9969697,7.48 C30.4348485,7.12 29.8727273,6.76 29.1901515,6.4 C29.8325758,6.08 30.475,5.84 31.1174242,5.6 C31.3181818,6.32 31.4787879,7.08 31.5992424,7.92 Z M28.0257576,1.72 C29.0295455,1.72 29.9931818,2.76 30.7159091,4.6 C29.8325758,4.92 28.9090909,5.32 28.0257576,5.76 C27.1022727,5.28 26.2189394,4.92 25.3356061,4.6 C26.0583333,2.76 27.0219697,1.72 28.0257576,1.72 Z M24.9742424,5.6 C25.6166667,5.84 26.2590909,6.08 26.9015152,6.4 C26.2189394,6.76 25.6568182,7.12 25.094697,7.48 C24.8939394,7.64 24.6931818,7.76 24.4924242,7.92 C24.6128788,7.08 24.7734848,6.32 24.9742424,5.6 Z M24.4924242,13.76 C24.6931818,13.92 24.8939394,14.04 25.094697,14.16 C25.6568182,14.52 26.2189394,14.88 26.9015152,15.28 C26.2590909,15.6 25.6166667,15.84 24.9742424,16.08 C24.7734848,15.36 24.6128788,14.56 24.4924242,13.76 Z M28.0257576,19.96 C27.0219697,19.96 26.0583333,18.92 25.3356061,17.08 C26.2189394,16.76 27.1424242,16.36 28.0257576,15.92 C28.9492424,16.36 29.8325758,16.76 30.7159091,17.08 C30.0333333,18.92 29.0295455,19.96 28.0257576,19.96 Z M31.0772727,16.08 C30.4348485,15.84 29.8325758,15.6 29.15,15.28 C29.8325758,14.92 30.394697,14.56 30.9568182,14.2 C31.1575758,14.04 31.3583333,13.92 31.5590909,13.76 C31.4787879,14.56 31.3181818,15.36 31.0772727,16.08 Z M31.7598485,12.36 C31.3181818,12.72 30.8363636,13.04 30.394697,13.32 C29.6318182,13.8 28.8689394,14.28 28.0659091,14.72 C27.2628788,14.28 26.4598485,13.84 25.7371212,13.32 C25.2954545,13 24.8136364,12.68 24.3719697,12.36 C24.3318182,11.84 24.3318182,11.32 24.3318182,10.84 C24.3318182,10.36 24.3318182,9.88 24.3719697,9.32 C24.8537879,8.96 25.2954545,8.64 25.7371212,8.36 C26.4598485,7.88 27.2628788,7.4 28.0659091,6.96 C28.8689394,7.4 29.6318182,7.84 30.394697,8.36 C30.8363636,8.68 31.3181818,9 31.7598485,9.32 C31.8,9.84 31.8,10.36 31.8,10.84 C31.8,11.32 31.8,11.8 31.7598485,12.36 Z M36.5378788,5.28 C36.7386364,5.52 36.8189394,5.84 36.7787879,6.28 C36.6583333,7.28 35.775,8.64 34.3295455,10.12 C33.8477273,9.68 33.3257576,9.24 32.7636364,8.8 C32.6431818,7.52 32.4022727,6.32 32.0810606,5.24 C34.2893939,4.6 35.9356061,4.64 36.5378788,5.28 Z M32.8840909,10.2 C33.125,10.4 33.3659091,10.6 33.5666667,10.8 C33.3257576,11 33.125,11.2 32.8840909,11.4 C32.8840909,11.2 32.8840909,11 32.8840909,10.8 C32.8840909,10.64 32.8840909,10.44 32.8840909,10.2 Z M36.5378788,16.4 C35.9356061,17.04 34.2893939,17.08 32.1212121,16.44 C32.4424242,15.36 32.6833333,14.16 32.8037879,12.88 C33.3659091,12.44 33.8878788,12 34.369697,11.56 C35.8151515,13 36.6583333,14.36 36.8189394,15.4 C36.8189394,15.84 36.7386364,16.16 36.5378788,16.4 Z" id="Shape"></path>
                                <ellipse id="Oval" cx="28.0257576" cy="10.84" rx="2.20833333" ry="2.2"></ellipse>
                            </g>
                        </g>
                    </g>
                </g>
            </g>
        </g>
    </g>
</svg>