<?xml version="1.0" encoding="UTF-8"?>
<svg width="41px" height="40px" viewBox="0 0 41 40" version="1.1" xmlns="http://www.w3.org/2000/svg" xmlns:xlink="http://www.w3.org/1999/xlink">
    <!-- Generator: Sketch 58 (84663) - https://sketch.com -->
    <title>Engineer Icon</title>
    <desc>Created with Sketch.</desc>
    <g id="Page-1" stroke="none" stroke-width="1" fill="none" fill-rule="evenodd">
        <g id="Mobile" transform="translate(-28.000000, -1713.000000)" fill="#000000" fill-rule="nonzero">
            <g id="Copy-Area" transform="translate(21.000000, 749.000000)">
                <g id="Features" transform="translate(7.000000, 526.000000)">
                    <g id="Engineer" transform="translate(0.000000, 438.000000)">
                        <g id="Engineer-Icon" transform="translate(0.000000, 0.000000)">
                            <g id="Group">
                                <path d="M19.3915187,22.8205128 L23.2593688,19.025641 C23.9911243,18.3076923 23.9911243,17.1794872 23.2593688,16.4615385 L7.36982249,0.871794872 C6.63806706,0.153846154 5.48816568,0.153846154 4.75641026,0.871794872 L0.888560158,4.66666667 C0.156804734,5.38461538 0.156804734,6.51282051 0.888560158,7.23076923 L16.8303748,22.8717949 C17.5098619,23.5384615 18.7120316,23.5384615 19.3915187,22.8205128 Z M6.69033531,2.82051282 L20.7504931,16.6153846 L19.6005917,17.7435897 L5.54043393,3.94871795 L6.69033531,2.82051282 Z M4.02465483,5.43589744 L18.0848126,19.2307692 L16.9349112,20.3589744 L2.87475345,6.56410256 L4.02465483,5.43589744 Z" id="Shape"></path>
                                <polygon id="Path" points="35.8037475 32.6666667 35.3333333 33.0769231 22.8412229 20.8205128 21.2209073 22.4102564 33.7130178 34.6666667 33.2948718 35.1282051 37.9467456 39.6410256 40.4033531 37.2307692"></polygon>
                                <path d="M20.2800789,23.6923077 C19.6005917,24.3589744 18.7120316,24.6666667 17.7712032,24.5641026 C17.0394477,24.4615385 16.3599606,24.1025641 15.8372781,23.5897436 L14.112426,21.8461538 C14.0601578,21.7948718 13.9556213,21.7948718 13.9033531,21.8461538 L12.7534517,22.974359 L11.4990138,24.2051282 C11.4467456,24.2564103 11.3944773,24.2564103 11.3422091,24.2564103 C8.62426036,23.2820513 5.43589744,23.8974359 3.24063116,26.0512821 C1.25443787,28 0.57495069,30.7692308 1.20216963,33.2820513 C1.25443787,33.3846154 1.35897436,33.4358974 1.46351085,33.3333333 L4.91321499,29.9487179 C5.69723866,29.1794872 6.95167653,29.1794872 7.68343195,29.9487179 L10.2445759,32.4615385 C11.0285996,33.2307692 11.0285996,34.4615385 10.2445759,35.1794872 L6.79487179,38.5641026 C6.69033531,38.6666667 6.74260355,38.7692308 6.84714004,38.8205128 C9.40828402,39.4358974 12.2307692,38.7692308 14.2169625,36.8205128 C16.4122288,34.6666667 16.9871795,31.5384615 16.0463511,28.8717949 C16.0463511,28.8205128 16.0463511,28.7692308 16.0986193,28.7179487 L17.300789,27.5384615 L21.0118343,23.8974359 L20.5414201,23.4358974 L20.2800789,23.6923077 Z" id="Path"></path>
                                <path d="M24.0433925,15.5384615 C25.2978304,16.7692308 25.2978304,18.7692308 24.0433925,19.9487179 L23.8865878,20.1025641 L24.357002,20.5641026 L28.0680473,16.9230769 L29.270217,15.7435897 C29.3224852,15.6923077 29.3747535,15.6923077 29.4270217,15.6923077 C32.1449704,16.6666667 35.3333333,16.0512821 37.5285996,13.8974359 C39.5147929,11.9487179 40.1942801,9.17948718 39.5670611,6.66666667 C39.5147929,6.56410256 39.4102564,6.51282051 39.3057199,6.61538462 L35.8560158,10 C35.0719921,10.7692308 33.8175542,10.7692308 33.0857988,10 L30.5246548,7.48717949 C29.7406312,6.71794872 29.7406312,5.48717949 30.5246548,4.76923077 L33.974359,1.38461538 C34.0788955,1.28205128 34.0266272,1.17948718 33.9220907,1.12820513 C31.3609467,0.512820513 28.5384615,1.17948718 26.5522682,3.12820513 C24.357002,5.28205128 23.7820513,8.41025641 24.7228797,11.0769231 C24.7228797,11.1282051 24.7228797,11.1794872 24.6706114,11.2307692 L23.4684418,12.4102564 L22.3185404,13.5384615 C22.2662722,13.5897436 22.2662722,13.6923077 22.3185404,13.7435897 L24.0433925,15.5384615 Z" id="Path"></path>
                            </g>
                        </g>
                    </g>
                </g>
            </g>
        </g>
    </g>
</svg>