<?xml version="1.0" encoding="UTF-8"?>
<svg width="57px" height="40px" viewBox="0 0 57 40" version="1.1" xmlns="http://www.w3.org/2000/svg" xmlns:xlink="http://www.w3.org/1999/xlink">
    <!-- Generator: Sketch 58 (84663) - https://sketch.com -->
    <title>Tactician Icon</title>
    <desc>Created with Sketch.</desc>
    <g id="Page-1" stroke="none" stroke-width="1" fill="none" fill-rule="evenodd">
        <g id="Mobile" transform="translate(-28.000000, -1494.000000)" fill="#000000" fill-rule="nonzero">
            <g id="Copy-Area" transform="translate(21.000000, 749.000000)">
                <g id="Features" transform="translate(7.000000, 526.000000)">
                    <g id="Tactician" transform="translate(0.000000, 219.000000)">
                        <g id="Tactician-Icon" transform="translate(0.000000, 0.000000)">
                            <circle id="Oval" cx="7.69230769" cy="3.07692308" r="3.07692308"></circle>
                            <path d="M9.82584834,7.64315274 C8.21176261,6.68405959 6.36194834,6.68313024 4.75207205,7.6399 C1.46777475,9.59293705 -0.294109035,14.974825 0.0403074516,22.0360553 C0.0721120965,22.7103015 0.647869712,23.2307397 1.32652471,23.1996063 C2.0051797,23.1689376 2.52948863,22.595991 2.49768399,21.9217448 C2.3428702,18.6383378 2.66606152,15.7276016 3.43311472,13.505052 C3.52572236,13.2355393 3.62534573,12.9767143 3.73151712,12.7290415 L3.73151712,23.1117824 L3.74227457,23.1117824 L3.74227457,38.5088518 C3.74227457,39.3266832 4.41017212,39.9902418 5.23335116,39.9902418 C6.05746564,39.9902418 6.72489547,39.3262185 6.72489547,38.5088518 L6.72489547,23.1117824 L7.821688,23.1117824 L7.821688,38.51861 C7.821688,39.3364414 8.48958554,40 9.3132323,40 C10.1364113,40 10.8043089,39.3364414 10.8043089,38.51861 L10.8043089,23.1117824 L10.8141309,23.1117824 L10.8141309,12.6244892 C10.9408818,12.9098008 11.058746,13.2104468 11.1691269,13.5250331 C11.9436635,15.7503708 12.2710643,18.6546015 12.1181214,21.9240682 C12.0863167,22.5978497 12.6106256,23.171261 13.2892806,23.2010004 C13.3093924,23.2019297 13.328101,23.2028591 13.3477451,23.2028591 C14.0011434,23.2028591 14.5450964,22.6921791 14.5759656,22.037914 C14.9075758,14.9896947 13.1316606,9.60873606 9.82584834,7.64315274 Z" id="Path"></path>
                            <path d="M54.4733988,15.6068709 C56.9140132,25.2939997 50.9566446,35.1445503 41.1993025,37.5672558 C31.4396352,39.9899613 21.515338,34.0795386 19.0761188,24.3951797 C18.140891,20.6812571 18.4031826,16.8417675 19.8360205,13.2884969 C19.9862336,12.9141039 20.0094864,12.5092425 19.9146149,12.1302332 C19.8513673,11.8763292 19.7332431,11.6348896 19.5658229,11.4229952 L16.6345743,7.7183055 L21.7432155,8.32259694 C22.3491836,8.3941517 22.9532915,8.17302442 23.3657963,7.72661509 C25.7794374,5.12479189 28.8864772,3.29391347 32.3502151,2.43433314 C42.1094173,0.0102427196 52.0346446,5.91928049 54.4733988,15.6068709 L54.4733988,15.6068709 Z M56.3168812,15.1489205 C53.6190908,4.43509639 42.6814363,-2.07684789 31.8888794,0.602069784 C27.9270665,1.58629389 24.5395979,3.67384614 21.9669075,6.44878567 L12.3076923,5.30529453 L18.0706675,12.5881836 C16.549469,16.3565801 16.1639375,20.6143188 17.2312412,24.8517452 C19.9285666,35.5641843 30.865756,42.0765903 41.6601731,39.3981342 C52.4527301,36.7196782 59.0151367,25.8613597 56.3168812,15.1489205 L56.3168812,15.1489205 Z" id="Shape"></path>
                            <path d="M27.6923077,11.5384615 L27.6923077,28.4615385 L44.6153846,28.4615385 L44.6153846,11.5384615 L27.6923077,11.5384615 Z M44.0330723,16.0511589 L40.1388297,16.0511589 L40.1388297,19.9995382 L44.0330723,19.9995382 L44.0330723,23.9483793 L40.1388297,23.9483793 L40.1388297,27.879672 L36.1716249,27.879672 L36.1716249,23.9483793 L32.2404395,23.9483793 L32.2404395,27.879672 L28.2741582,27.879672 L28.2741582,23.9483793 L32.2404395,23.9483793 L32.2404395,20.0540305 L28.2741582,20.0540305 L28.2741582,16.087641 L32.2404395,16.087641 L32.2404395,20.0540305 L36.1716249,20.0540305 L36.1716249,23.9483793 L40.1388297,23.9483793 L40.1388297,19.9995382 L36.1716249,19.9995382 L36.1716249,16.0511589 L32.2404395,16.0511589 L32.2404395,12.1207898 L36.1716249,12.1207898 L36.1716249,16.0511589 L40.1388297,16.0511589 L40.1388297,12.1207898 L44.0330723,12.1207898 L44.0330723,16.0511589 L44.0330723,16.0511589 Z" id="Shape"></path>
                        </g>
                    </g>
                </g>
            </g>
        </g>
    </g>
</svg>